<?xml version="1.0" standalone="no"?>
<!DOCTYPE svg PUBLIC "-//W3C//DTD SVG 1.1//EN" "http://www.w3.org/Graphics/SVG/1.1/DTD/svg11.dtd" >
<svg xmlns="http://www.w3.org/2000/svg" xmlns:xlink="http://www.w3.org/1999/xlink" version="1.1" viewBox="-10 0 266 256">
   <path fill="currentColor"
d="M98 77q1 -3 3 -3q2 1 7 1q7 0 11 2q1 1 1 2q-1 1 -4 2q-12 0 -17 4q-1 2 -5 5l-3 3q0 4 -1 12v11q13 -3 28 -6h1q4 -1 4 -4q-1 -5 6 -3q8 1 17 7q2 1 1 3q-2 2 -4 1q-14 -5 -29 0q-11 2 -24 6q-3 66 -45 89q-7 2 -2 -2q37 -27 42 -86q-26 7 -44 15q-13 5 -23 0
q-4 -2 0 -2q13 0 28 -6q7 -2 23 -6q11 -3 17 -5v-6q1 -10 0 -15q-1 2 -4 2q-6 4 0 -2l2 -2l3 -3v-2h-1q-12 5 -28 5q-2 0 -1 -1q0 -1 2 -2q17 -3 28 -8q0 -8 -2 -25q2 12 0 -3q-21 9 -35 7q-2 -1 -2 -2l2 -1q9 -1 28 -7q5 -1 7 -2q0 -4 -1 -12q0 -7 -1 -11q0 -17 -5 -19
q-1 -4 2 -1q10 6 9 11q0 5 1 15v15l4 -2q13 -5 14 -9q0 -4 7 -1q9 2 16 7q2 2 1 3q-2 1 -5 1q-12 -2 -26 5q-5 2 -3 0q1 -1 0 -1q-1 -1 -3 0q-1 0 -1 1q-1 1 -4 1q0 5 1 16v12q5 -2 7 -4zM194 35q8 8 11 12q3 2 2 4q0 1 -5 2q-7 1 -11 13q-13 27 -21 35q37 15 51 38
q3 7 -3 7q-6 -1 -15 -3q-6 -2 -10 -3q-17 -3 -38 -12v33q-1 27 1 51q9 8 12 17q0 5 -5 3q-6 -2 -9 -7t-9 -11q-3 -6 7 -15v-64q-1 -22 -2 -69q-1 -12 -5 -15q-4 -2 0 -2q7 0 11 3q3 1 1 4q-1 2 -1 14q0 21 -1 55q20 10 42 8q8 0 9 -2t-5 -7q-8 -7 -29 -17q-3 -2 -5 -3t-2 -2
q-1 0 1 -2q13 -14 23 -50q1 -6 -4 -5q-10 3 -26 5h-2q-4 0 0 -2q3 -1 8 -3q12 -4 18 -7q4 -6 11 -3z" />
</svg>
