<?xml version="1.0" encoding="UTF-8" standalone="no"?>
<svg
   version="1.1"
   viewBox="-10 0 266 256"
   id="svg4724"
   xmlns="http://www.w3.org/2000/svg"
   xmlns:svg="http://www.w3.org/2000/svg">
  <defs
     id="defs4728" />
  <path
     fill="currentColor"
     d="m 98,81 q 1,-3 3,-3 2,1 7,1 7,0 11,2 1,1 1,2 -1,1 -4,2 -12,0 -17,4 -1,2 -5,5 l -3,3 q 0,4 -1,12 v 11 q 13,-3 28,-6 h 1 q 4,-1 4,-4 -1,-5 6,-3 8,1 17,7 2,1 1,3 -2,2 -4,1 -14,-5 -29,0 -11,2 -24,6 -3,66 -45,89 -7,2 -2,-2 37,-27 42,-86 -26,7 -44,15 -13,5 -23,0 -4,-2 0,-2 13,0 28,-6 7,-2 23,-6 11,-3 17,-5 v -6 q 1,-10 0,-15 -1,2 -4,2 -6,4 0,-2 l 2,-2 3,-3 v -2 h -1 q -12,5 -28,5 -2,0 -1,-1 0,-1 2,-2 17,-3 28,-8 0,-8 -2,-25 2,12 0,-3 -21,9 -35,7 -2,-1 -2,-2 l 2,-1 q 9,-1 28,-7 5,-1 7,-2 0,-4 -1,-12 0,-7 -1,-11 0,-17 -5,-19 -1,-4 2,-1 10,6 9,11 0,5 1,15 v 15 l 4,-2 q 13,-5 14,-9 0,-4 7,-1 9,2 16,7 2,2 1,3 -2,1 -5,1 -12,-2 -26,5 -5,2 -3,0 1,-1 0,-1 -1,-1 -3,0 -1,0 -1,1 -1,1 -4,1 0,5 1,16 v 12 q 5,-2 7,-4 z m 96,-42 q 8,8 11,12 3,2 2,4 0,1 -5,2 -7,1 -11,13 -13,27 -21,35 37,15 51,38 3,7 -3,7 -6,-1 -15,-3 -6,-2 -10,-3 -17,-3 -38,-12 v 33 q -1,27 1,51 9,8 12,17 0,5 -5,3 -6,-2 -9,-7 -3,-5 -9,-11 -3,-6 7,-15 v -64 q -1,-22 -2,-69 -1,-12 -5,-15 -4,-2 0,-2 7,0 11,3 3,1 1,4 -1,2 -1,14 0,21 -1,55 20,10 42,8 8,0 9,-2 1,-2 -5,-7 -8,-7 -29,-17 -3,-2 -5,-3 -2,-1 -2,-2 -1,0 1,-2 13,-14 23,-50 1,-6 -4,-5 -10,3 -26,5 h -2 q -4,0 0,-2 3,-1 8,-3 12,-4 18,-7 4,-6 11,-3 z"
     id="path4722"
     style="fill:none;stroke:#ff0000;stroke-opacity:1" />
  <path
     style="fill:none;stroke:#000000;stroke-width:1px;stroke-linecap:butt;stroke-linejoin:miter;stroke-opacity:1"
     d="m 46.461538,67.230769 68.461542,-20.461538 12.61538,1.076923"
     id="path4910" />
  <path
     style="fill:none;stroke:#000000;stroke-width:1px;stroke-linecap:butt;stroke-linejoin:miter;stroke-opacity:1"
     d="m 17.538462,143.23077 70.15106,-20.79251 37.313478,-8.64846 0.87029,-4.569 17.07935,5.65686"
     id="path4914" />
  <path
     style="fill:none;stroke:#000000;stroke-width:1px;stroke-linecap:butt;stroke-linejoin:miter;stroke-opacity:1"
     d="M 53.313253,100.30038 109.44665,81.589244 93.69231,89.076923 84.307692,99.461539"
     id="path5109" />
  <path
     style="fill:none;stroke:#000000;stroke-width:1px;stroke-linecap:butt;stroke-linejoin:miter;stroke-opacity:1"
     d="m 84.461538,6.4615385 4.846154,76.3846155 -2.538461,54.076926 -10.307692,37.6923 -14.282254,22.17788 -18.275991,15.39317"
     id="path5111" />
  <path
     style="fill:none;stroke:#000000;stroke-width:1px;stroke-linecap:butt;stroke-linejoin:miter;stroke-opacity:1"
     d="m 153.61538,54.076923 36.53847,-10.307692 10.46153,9.153846 -7.38461,3.692308 -14.53846,32.230769 -11,16.230766"
     id="path5113" />
  <path
     style="fill:none;stroke:#000000;stroke-width:1px;stroke-linecap:butt;stroke-linejoin:miter;stroke-opacity:1"
     d="m 167.69231,105.07692 31.61538,18.07693 14.15385,14.38461 2.46154,7.53846 -40.76923,-7.30769 -15.57693,-5 -5.96154,-2.61538"
     id="path5150" />
  <path
     style="fill:none;stroke:#000000;stroke-width:1px;stroke-linecap:butt;stroke-linejoin:miter;stroke-opacity:1"
     d="m 152.38462,50.846154 1.15384,103.923076 -0.15384,54.30769 -3.69231,6 L 164,232.92308"
     id="path5152" />
</svg>
