<?xml version="1.0" standalone="no"?>
<!DOCTYPE svg PUBLIC "-//W3C//DTD SVG 1.1//EN" "http://www.w3.org/Graphics/SVG/1.1/DTD/svg11.dtd" >
<svg xmlns="http://www.w3.org/2000/svg" xmlns:xlink="http://www.w3.org/1999/xlink" version="1.1" viewBox="-10 0 266 256">
   <path fill="currentColor"
d="M131 18q5 4 9 7q4 0 1 7q-7 17 -15 32q14 -2 39 -10q4 -1 7 -2q8 -2 8 -6q2 -5 7 -3l12 4q4 1 5 2q3 1 2 2q-1 2 -4 2q-15 0 -51 10q8 5 14 8q3 2 0 6q-5 6 -6 27q3 0 10 -1q22 -3 32 -3q6 -9 12 -5q6 3 12 4q11 3 19 10q2 3 -1 5t-6 0q-18 -13 -40 -10q-15 0 -38 5v44
q-1 36 -1 50q-1 8 5 14q5 4 9 13q-1 7 -5 4q-2 -3 -9 -11q-7 -9 -10 -12q-3 -5 0 -8t7 -1q0 -16 -1 -49v-44q-12 2 -43 11q-10 3 -23 0q-3 -1 0 -1q4 0 9 -1q3 -1 5 -1q11 -2 38 -9q10 -2 14 -3q1 -31 -5 -41q-1 0 -3 1q-14 4 -22 2q-9 16 -20 30q-3 4 -1 -1q33 -55 26 -76
q-2 -5 2 -2zM61 157q1 3 2 7l3 9q1 -1 7 -4q9 -3 11 -15q1 -3 0 -4l-4 1q-1 0 -4 1zM87 143q5 0 10 1q2 0 2 2q1 1 -2 3q-5 2 -10 14q2 0 5 -1q5 -1 11 -1q2 1 0 3q-1 1 -3 2l-1 1q-11 0 -20 4q-3 1 -8 2q-3 1 -4 1q2 6 5 10q2 2 0 3q-2 3 -5 0q-4 -5 -9 -8q-2 -2 0 -4
q4 -3 -1 -22q-1 -4 3 2q9 -5 23 -9q1 -4 4 -3zM87 109q2 1 2 2q1 0 -1 2q-3 1 -6 5q-4 4 -8 6q-3 1 -5 3q-3 1 -3 0l2 -3q0 -1 -2 0q-5 1 -11 1q-2 -1 1 -2q9 -2 20 -11q6 -6 11 -3zM86 81q3 -2 4 0q3 4 -1 6q-4 1 -9 3q-3 2 -4 2q-6 3 -5 1q0 -2 -3 0q-5 2 -11 2q-3 0 0 -2
q12 -4 14 -7q1 -1 2 -1l1 -1q3 -1 8 -2q3 -1 4 -1zM99 44q5 -1 13 1q2 0 1 2q0 1 -1 1q1 0 -2 1q-8 3 -16 4q-6 2 -10 5q-4 1 -1 -2q1 -2 1 -3h-2q-4 1 -14 4q-20 4 -28 7q-4 3 -23 1q-3 -2 0 -2q2 0 5 -1q26 -5 60 -13q2 0 5 -1q7 -1 7 -2q1 -2 5 -2zM77 5q17 5 24 9
q1 1 1 4q-1 1 -3 2q-3 1 -7 0t-3 -2q2 -1 -4 -5q-1 -1 -4 -3q-2 -2 -4 -3q-1 -2 0 -2z" />
</svg>
