<?xml version="1.0" encoding="UTF-8" standalone="no"?>
<svg
   version="1.1"
   viewBox="-10 0 266 256"
   id="svg19"
   sodipodi:docname="Hsu_Path.svg"
   inkscape:version="1.1 (c68e22c387, 2021-05-23)"
   xmlns:inkscape="http://www.inkscape.org/namespaces/inkscape"
   xmlns:sodipodi="http://sodipodi.sourceforge.net/DTD/sodipodi-0.dtd"
   xmlns="http://www.w3.org/2000/svg"
   xmlns:svg="http://www.w3.org/2000/svg">
  <sodipodi:namedview
     id="namedview16"
     pagecolor="#ffffff"
     bordercolor="#666666"
     borderopacity="1.0"
     inkscape:pageshadow="2"
     inkscape:pageopacity="0.0"
     inkscape:pagecheckerboard="0"
     showgrid="false"
     inkscape:zoom="6.5"
     inkscape:cx="84.384615"
     inkscape:cy="75.923077"
     inkscape:window-width="1920"
     inkscape:window-height="1017"
     inkscape:window-x="1912"
     inkscape:window-y="-8"
     inkscape:window-maximized="1"
     inkscape:current-layer="svg19" />
  <defs
     id="defs23" />
  <path
     fill="currentColor"
     d="m 131,24 q 5,4 9,7 4,0 1,7 -7,17 -15,32 14,-2 39,-10 4,-1 7,-2 8,-2 8,-6 2,-5 7,-3 l 12,4 q 4,1 5,2 3,1 2,2 -1,2 -4,2 -15,0 -51,10 8,5 14,8 3,2 0,6 -5,6 -6,27 3,0 10,-1 22,-3 32,-3 6,-9 12,-5 6,3 12,4 11,3 19,10 2,3 -1,5 -3,2 -6,0 -18,-13 -40,-10 -15,0 -38,5 v 44 q -1,36 -1,50 -1,8 5,14 5,4 9,13 -1,7 -5,4 -2,-3 -9,-11 -7,-9 -10,-12 -3,-5 0,-8 3,-3 7,-1 0,-16 -1,-49 v -44 q -12,2 -43,11 -10,3 -23,0 -3,-1 0,-1 4,0 9,-1 3,-1 5,-1 11,-2 38,-9 10,-2 14,-3 1,-31 -5,-41 -1,0 -3,1 -14,4 -22,2 -9,16 -20,30 -3,4 -1,-1 33,-55 26,-76 -2,-5 2,-2 z M 61,163 q 1,3 2,7 l 3,9 q 1,-1 7,-4 9,-3 11,-15 1,-3 0,-4 l -4,1 q -1,0 -4,1 z m 26,-14 q 5,0 10,1 2,0 2,2 1,1 -2,3 -5,2 -10,14 2,0 5,-1 5,-1 11,-1 2,1 0,3 -1,1 -3,2 l -1,1 q -11,0 -20,4 -3,1 -8,2 -3,1 -4,1 2,6 5,10 2,2 0,3 -2,3 -5,0 -4,-5 -9,-8 -2,-2 0,-4 4,-3 -1,-22 -1,-4 3,2 9,-5 23,-9 1,-4 4,-3 z m 0,-34 q 2,1 2,2 1,0 -1,2 -3,1 -6,5 -4,4 -8,6 -3,1 -5,3 -3,1 -3,0 l 2,-3 q 0,-1 -2,0 -5,1 -11,1 -2,-1 1,-2 9,-2 20,-11 6,-6 11,-3 z M 86,87 q 3,-2 4,0 3,4 -1,6 -4,1 -9,3 -3,2 -4,2 -6,3 -5,1 0,-2 -3,0 -5,2 -11,2 -3,0 0,-2 12,-4 14,-7 1,-1 2,-1 l 1,-1 q 3,-1 8,-2 3,-1 4,-1 z M 99,50 q 5,-1 13,1 2,0 1,2 0,1 -1,1 1,0 -2,1 -8,3 -16,4 -6,2 -10,5 -4,1 -1,-2 1,-2 1,-3 h -2 q -4,1 -14,4 -20,4 -28,7 -4,3 -23,1 -3,-2 0,-2 2,0 5,-1 26,-5 60,-13 2,0 5,-1 7,-1 7,-2 1,-2 5,-2 z M 77,11 q 17,5 24,9 1,1 1,4 -1,1 -3,2 -3,1 -7,0 -4,-1 -3,-2 2,-1 -4,-5 -1,-1 -4,-3 -2,-2 -4,-3 -1,-2 0,-2 z"
     id="path17"
     style="fill:none;stroke:#0000f9;stroke-opacity:1" />
  <path
     style="fill:none;stroke:#010000;stroke-width:1px;stroke-linecap:butt;stroke-linejoin:miter;stroke-opacity:1"
     d="m 77,11 25,13 H 89"
     id="path1449" />
  <path
     style="fill:none;stroke:#000000;stroke-width:1px;stroke-linecap:butt;stroke-linejoin:miter;stroke-opacity:1"
     d="M 52.49691,101.8937 93.4759,88.761434"
     id="path2476" />
  <path
     style="fill:none;stroke:#000000;stroke-width:1px;stroke-linecap:butt;stroke-linejoin:miter;stroke-opacity:1"
     d="M 54.39555,134.17058 91.1026,112.81088"
     id="path2577" />
  <path
     style="fill:none;stroke:#000000;stroke-width:1px;stroke-linecap:butt;stroke-linejoin:miter;stroke-opacity:1"
     d="m 56.13597,153.47342 13.923363,45.56737"
     id="path2777" />
  <path
     style="fill:none;stroke:#000000;stroke-width:1px;stroke-linecap:butt;stroke-linejoin:miter;stroke-opacity:1"
     d="m 53.28801,163.59951 38.52658,-12.18295 -9.572315,22.62547"
     id="path2779" />
  <path
     style="fill:none;stroke:#000000;stroke-width:1px;stroke-linecap:butt;stroke-linejoin:miter;stroke-opacity:1"
     d="m 63.572312,181.32015 21.517923,-9.4932 13.290485,-2.68974"
     id="path4494" />
  <path
     style="fill:none;stroke:#000000;stroke-width:1px;stroke-linecap:butt;stroke-linejoin:miter;stroke-opacity:1"
     d="m 138.41038,22.783684 -12.34116,41.453646 -17.4042,30.378245 -7.59456,10.917185"
     id="path4689" />
  <path
     style="fill:none;stroke:#000000;stroke-width:1px;stroke-linecap:butt;stroke-linejoin:miter;stroke-opacity:1"
     d="M 124,73 198.42956,55.267956"
     id="path4693" />
  <path
     style="fill:none;stroke:#000000;stroke-width:1px;stroke-linecap:butt;stroke-linejoin:miter;stroke-opacity:1"
     d="m 85.991712,130.45028 66.679558,-17.56492 57.95304,-6.82459 28.86464,10.4047"
     id="path4695" />
  <path
     style="fill:none;stroke:#000000;stroke-width:1px;stroke-linecap:butt;stroke-linejoin:miter;stroke-opacity:1"
     d="m 157.14641,69.140884 -0.89503,147.232046 -4.92265,-3.58011 16.44613,23.60635"
     id="path4697" />
  <path
     style="fill:none;stroke:#000000;stroke-width:1px;stroke-linecap:butt;stroke-linejoin:miter;stroke-opacity:1"
     d="m 13.606488,73.647891 c 0.435143,0 69.547358,-16.955583 69.547358,-16.955583 l 15.923074,-2.923077 -1.6923,-1.538462 h 13.30769 l -24.153848,7.23077"
     id="path981" />
</svg>
