<?xml version="1.0" standalone="no"?>
<!DOCTYPE svg PUBLIC "-//W3C//DTD SVG 1.1//EN" "http://www.w3.org/Graphics/SVG/1.1/DTD/svg11.dtd" >
<svg xmlns="http://www.w3.org/2000/svg" xmlns:xlink="http://www.w3.org/1999/xlink" version="1.1" viewBox="-10 0 274 256">
   <path fill="currentColor"
d="M82 6q18 6 23 12l1 1q-1 1 -3 2q-4 2 -7 -2q-2 -3 -8 -2q-3 0 -3 -1q-1 0 1 -2q2 -1 -5 -7q-3 -3 1 -1zM121 29q1 1 5 2q5 2 7 4t2 3q-1 2 -4 1q-7 -5 -41 11q-6 3 -2 -2q-28 7 -44 3q-6 -1 0 -1q19 0 54 -10q15 -4 15 -9q0 -4 8 -2zM79 98q-1 1 -6 7q-15 16 -29 25
q-2 2 -2 0q1 -2 3 -3l4 -4q26 -25 27 -34h1q-28 8 -55 15q-4 3 -12 0q-3 -2 0 -2q26 -4 62 -15q-6 -4 -4 -13q0 -2 1 -2q2 -1 2 1q0 3 9 -2q4 -3 1 1q-9 9 -1 12q13 -7 23 -21q4 -5 2 -7q-2 -1 -2 -2q1 -1 3 -1q5 1 10 5q2 2 2 3t-3 2q-3 0 -6 4q-4 4 -21 16q22 -5 24 -8
q3 -4 8 -2q8 2 15 7l2 1q0 1 -2 2t-7 0q-1 -1 -2 -1q-9 -4 -37 4q-4 0 -9 2q2 9 -1 10zM99 134v-1q22 7 36 20q3 3 -2 7q-2 2 -6 -2q-11 -11 -27 -22q8 49 -16 77q-1 2 -3 2q-2 -1 -2 -3q1 -4 -9 -13q-2 -1 -5 -7t2 -2q4 4 17 9q4 2 8 -5q9 -21 1 -61q-4 5 -12 18
q-5 8 -8 13q-33 51 -50 58q-6 3 -1 -1q41 -38 68 -96q0 -1 -1 -2q-3 -4 -6 -6q-10 17 -29 32q-5 4 -2 -1q19 -16 27 -35q0 -1 -3 -4q-3 -5 1 -2q16 7 20 18q0 -1 1 -1q23 -14 23 -25q1 -2 2 -2l1 2q4 7 2 8q-14 16 -27 19q0 1 -1 1v2q1 2 1 5zM201 19q2 1 6 4q2 1 3 2
q4 5 -2 7q-5 1 -8 5q-5 7 -11 23q-2 8 3 7q3 -1 10 -4q2 -2 3 -2q1 -3 11 3q2 4 -2 4q-10 0 -15 4q-23 19 -49 44q16 -4 24 -10q6 -7 11 -3q1 1 4 2q5 4 8 5t2 3q-1 3 -5 4t-7 9q-5 15 -16 36q7 11 24 34q-1 -1 2 2q3 4 18 4q18 1 37 9q2 2 2 3t-3 0q-1 0 -3 -1
q-16 -2 -29 -2q-16 0 -22 -8q-12 -11 -29 -37q-24 35 -42 47q-6 5 -1 -2q20 -17 40 -49q-4 -6 -14 -17q-1 -2 -2 -3q-4 -4 -11 1q-4 3 -2 -2q12 -11 16 -6q9 15 15 22q12 -19 17 -44q1 -3 0 -4t-5 0q-20 6 -34 15q-4 2 -5 2t0 -4q1 -7 8 -10q27 -18 42 -39q-9 3 -7 -12
q1 -2 2 -7q2 -7 8 -22q1 -3 0 -4q-2 0 -5 1q-16 5 -29 11q-4 34 -10 47q-4 4 -7 -2q0 -7 3 -11q5 -8 8 -23q2 -12 -7 -20q-3 -3 2 -2q6 2 10 8q11 -8 18 -9q6 -1 13 -8q5 -6 12 -1z" />
</svg>
