<?xml version="1.0" encoding="UTF-8" standalone="no"?>
<svg
   version="1.1"
   viewBox="-10 0 274 256"
   id="svg5175"
   sodipodi:docname="Yi_Path.svg"
   inkscape:version="1.1 (c68e22c387, 2021-05-23)"
   xmlns:inkscape="http://www.inkscape.org/namespaces/inkscape"
   xmlns:sodipodi="http://sodipodi.sourceforge.net/DTD/sodipodi-0.dtd"
   xmlns="http://www.w3.org/2000/svg"
   xmlns:svg="http://www.w3.org/2000/svg">
  <sodipodi:namedview
     id="namedview1034"
     pagecolor="#ffffff"
     bordercolor="#666666"
     borderopacity="1.0"
     inkscape:pageshadow="2"
     inkscape:pageopacity="0.0"
     inkscape:pagecheckerboard="0"
     showgrid="false"
     inkscape:zoom="9.192388"
     inkscape:cx="85.015994"
     inkscape:cy="118.08683"
     inkscape:window-width="1920"
     inkscape:window-height="1017"
     inkscape:window-x="1912"
     inkscape:window-y="-8"
     inkscape:window-maximized="1"
     inkscape:current-layer="svg5175" />
  <defs
     id="defs5179" />
  <path
     fill="currentColor"
     d="m 82,16 q 18,6 23,12 l 1,1 q -1,1 -3,2 -4,2 -7,-2 -2,-3 -8,-2 -3,0 -3,-1 -1,0 1,-2 2,-1 -5,-7 -3,-3 1,-1 z m 39,23 q 1,1 5,2 5,2 7,4 2,2 2,3 -1,2 -4,1 -7,-5 -41,11 -6,3 -2,-2 -28,7 -44,3 -6,-1 0,-1 19,0 54,-10 15,-4 15,-9 0,-4 8,-2 z m -42,69 q -1,1 -6,7 -15,16 -29,25 -2,2 -2,0 1,-2 3,-3 l 4,-4 Q 75,108 76,99 h 1 q -28,8 -55,15 -4,3 -12,0 -3,-2 0,-2 26,-4 62,-15 -6,-4 -4,-13 0,-2 1,-2 2,-1 2,1 0,3 9,-2 4,-3 1,1 -9,9 -1,12 13,-7 23,-21 4,-5 2,-7 -2,-1 -2,-2 1,-1 3,-1 5,1 10,5 2,2 2,3 0,1 -3,2 -3,0 -6,4 -4,4 -21,16 22,-5 24,-8 3,-4 8,-2 8,2 15,7 l 2,1 q 0,1 -2,2 -2,1 -7,0 -1,-1 -2,-1 -9,-4 -37,4 -4,0 -9,2 2,9 -1,10 z m 20,36 v -1 q 22,7 36,20 3,3 -2,7 -2,2 -6,-2 -11,-11 -27,-22 8,49 -16,77 -1,2 -3,2 -2,-1 -2,-3 1,-4 -9,-13 -2,-1 -5,-7 -3,-6 2,-2 4,4 17,9 4,2 8,-5 9,-21 1,-61 -4,5 -12,18 -5,8 -8,13 -33,51 -50,58 -6,3 -1,-1 41,-38 68,-96 0,-1 -1,-2 -3,-4 -6,-6 -10,17 -29,32 -5,4 -2,-1 19,-16 27,-35 0,-1 -3,-4 -3,-5 1,-2 16,7 20,18 0,-1 1,-1 23,-14 23,-25 1,-2 2,-2 l 1,2 q 4,7 2,8 -14,16 -27,19 0,1 -1,1 v 2 q 1,2 1,5 z M 201,29 q 2,1 6,4 2,1 3,2 4,5 -2,7 -5,1 -8,5 -5,7 -11,23 -2,8 3,7 3,-1 10,-4 2,-2 3,-2 1,-3 11,3 2,4 -2,4 -10,0 -15,4 -23,19 -49,44 16,-4 24,-10 6,-7 11,-3 1,1 4,2 5,4 8,5 3,1 2,3 -1,3 -5,4 -4,1 -7,9 -5,15 -16,36 7,11 24,34 -1,-1 2,2 3,4 18,4 18,1 37,9 2,2 2,3 0,1 -3,0 -1,0 -3,-1 -16,-2 -29,-2 -16,0 -22,-8 -12,-11 -29,-37 -24,35 -42,47 -6,5 -1,-2 20,-17 40,-49 -4,-6 -14,-17 -1,-2 -2,-3 -4,-4 -11,1 -4,3 -2,-2 12,-11 16,-6 9,15 15,22 12,-19 17,-44 1,-3 0,-4 -1,-1 -5,0 -20,6 -34,15 -4,2 -5,2 -1,0 0,-4 1,-7 8,-10 27,-18 42,-39 -9,3 -7,-12 1,-2 2,-7 2,-7 8,-22 1,-3 0,-4 -2,0 -5,1 -16,5 -29,11 -4,34 -10,47 -4,4 -7,-2 0,-7 3,-11 5,-8 8,-23 2,-12 -7,-20 -3,-3 2,-2 6,2 10,8 11,-8 18,-9 6,-1 13,-8 5,-6 12,-1 z"
     id="path5173"
     style="fill:none;stroke:#ff0000;stroke-opacity:1" />
  <path
     style="fill:none;stroke:#000000;stroke-width:1px;stroke-linecap:butt;stroke-linejoin:miter;stroke-opacity:1"
     d="m 81,17 20.38462,11.923077"
     id="path5361" />
  <path
     style="fill:none;stroke:#000000;stroke-width:1px;stroke-linecap:butt;stroke-linejoin:miter;stroke-opacity:1"
     d="m 74.384615,81 c 0,0 -6.153846,13.846154 2.23077,15.384615"
     id="path5369" />
  <path
     style="fill:none;stroke:#000000;stroke-width:1px;stroke-linecap:butt;stroke-linejoin:miter;stroke-opacity:1"
     d="M 114.84615,64.307692 94.69231,85.461539 80.769231,96.153846"
     id="path5371" />
  <path
     style="fill:none;stroke:#000000;stroke-width:1px;stroke-linecap:butt;stroke-linejoin:miter;stroke-opacity:1"
     d="m 78.423077,98.230769 -0.653846,7.423081 -23.230769,24.42307 -10.5,8.84616"
     id="path5375" />
  <path
     style="fill:none;stroke:#000000;stroke-width:1px;stroke-linecap:butt;stroke-linejoin:miter;stroke-opacity:1"
     d="M 85.73138,121.18722 65.497247,146.64307 53.615385,158.07692"
     id="path5379" />
  <path
     style="fill:none;stroke:#000000;stroke-width:1px;stroke-linecap:butt;stroke-linejoin:miter;stroke-opacity:1"
     d="M 97.38462,130.76923 66.461539,180.92308 44.923077,210.30769 25.409732,229.32017"
     id="path5381" />
  <path
     style="fill:none;stroke:#000000;stroke-width:1px;stroke-linecap:butt;stroke-linejoin:miter;stroke-opacity:1"
     d="m 142.51749,36.551981 12.61914,10.660995 -0.38075,18.112812 -8.53967,28.501843"
     id="path5389" />
  <path
     style="fill:none;stroke:#000000;stroke-width:1px;stroke-linecap:butt;stroke-linejoin:miter;stroke-opacity:1"
     d="m 138.49242,144.68493 11.31371,4.24264 42.75277,57.11247 7.34303,6.90789 7.39742,3.046 41.61052,5.43928"
     id="path5393" />
  <path
     style="fill:none;stroke:#000000;stroke-width:1px;stroke-linecap:butt;stroke-linejoin:miter;stroke-opacity:1"
     d="M 40.461538,65.076923 C 42,64.923077 97.69231,52.923077 97.69231,52.923077 l 18.76923,-8.153846 -0.76923,-4.153846 16.07692,6.230769 L 120,46.153846 89.076923,59"
     id="path1208" />
  <path
     style="fill:none;stroke:#000000;stroke-width:1px;stroke-linecap:butt;stroke-linejoin:miter;stroke-opacity:1"
     d="m 128.26657,108.13294 -14.14213,17.40571 -18.60235,11.31371"
     id="path948" />
  <path
     style="fill:none;stroke:#000000;stroke-width:1px;stroke-linecap:butt;stroke-linejoin:miter;stroke-opacity:1"
     d="m 97.23077,143.61538 19.46154,10.23077 20.84615,17.3077"
     id="path1145" />
  <path
     style="fill:none;stroke:#000000;stroke-width:1px;stroke-linecap:butt;stroke-linejoin:miter;stroke-opacity:1"
     d="m 74.076923,116.38462 17.615387,15.07692 3.46154,9.07692 L 98,154.23077 99.15385,169.15385 99,180.69231 97.84615,191.76923 93,206.38462 82.692308,221 81.538462,213.92308 62.461538,197.76923"
     id="path1340" />
  <path
     style="fill:none;stroke:#000000;stroke-width:1px;stroke-linecap:butt;stroke-linejoin:miter;stroke-opacity:1"
     d="m 154,50.153846 40.76923,-16.923077 -0.92308,-4.153846 13.69231,8.461539 -8.61538,3.692307 L 191.23077,56 186,72.923077 v 6.461538 l 4.57692,0.538462 16.38462,-5.153846 -0.46154,-3.076923 7.23077,3.769231 -16.26923,4.115384 L 185.88462,90.961539 172.42308,104 l -23.86798,20.99472 -6.63593,8.15893 39.97873,-18.71114 14.19653,7.77818 -7.99575,2.2845 -13.27185,35.24655 -16.10027,26.92445 -17.62328,20.88685 L 123.48,223.7721"
     id="path1535" />
  <path
     style="fill:none;stroke:#000000;stroke-width:1px;stroke-linecap:butt;stroke-linejoin:miter;stroke-opacity:1"
     d="m 7.514491,116.0743 62.986898,-16.752992 44.819691,-11.422494 1.523,-4.133855 18.38478,8.920424"
     id="path949" />
</svg>
